<svg width="41" height="41" viewBox="0 0 41 41" fill="none" xmlns="http://www.w3.org/2000/svg">
<g id="Group 34839">
<circle id="Ellipse 16" opacity="0.5" cx="19.9629" cy="19.9629" r="19.9629" transform="matrix(-0.999669 0.0257268 0.0257268 0.999669 39.9122 0)" fill="white"/>
<path id="Vector" d="M21.7033 26.9426C21.9189 26.943 22.1279 26.8679 22.2939 26.7303C22.3874 26.6528 22.4646 26.5577 22.5213 26.4503C22.5779 26.343 22.6128 26.2255 22.6239 26.1046C22.6351 25.9837 22.6222 25.8618 22.5862 25.7459C22.5502 25.63 22.4916 25.5223 22.4139 25.4291L18.2794 20.4825L22.2663 15.5266C22.3429 15.4322 22.4002 15.3236 22.4347 15.207C22.4693 15.0904 22.4804 14.9681 22.4676 14.8472C22.4547 14.7263 22.4181 14.6091 22.3598 14.5024C22.3015 14.3957 22.2226 14.3015 22.1278 14.2254C22.0323 14.1414 21.9205 14.078 21.7994 14.0392C21.6782 14.0005 21.5504 13.9872 21.4239 14.0002C21.2974 14.0132 21.1749 14.0522 21.0642 14.1148C20.9534 14.1773 20.8568 14.2621 20.7804 14.3638L16.323 19.9011C16.1872 20.0662 16.113 20.2733 16.113 20.4871C16.113 20.7008 16.1872 20.908 16.323 21.0731L20.9373 26.6103C21.0299 26.722 21.1475 26.8103 21.2806 26.868C21.4137 26.9258 21.5585 26.9513 21.7033 26.9426Z" fill="white"/>
</g>
</svg>
