<svg width="33" height="33" viewBox="0 0 33 33" fill="none" xmlns="http://www.w3.org/2000/svg">
<g id="Group 498">
<circle id="Ellipse 11" cx="16.5" cy="16.5" r="16.5" fill="white"/>
<path id="Vector" d="M23.6618 20.453C23.6211 20.3304 23.3623 20.1499 22.8854 19.9117C22.7562 19.8366 22.5721 19.7346 22.3339 19.6052C22.0955 19.4757 21.8792 19.3565 21.6852 19.2475C21.4908 19.1385 21.3087 19.033 21.1385 18.9309C21.1113 18.9105 21.0262 18.851 20.8832 18.752C20.74 18.6533 20.6192 18.5801 20.5203 18.5323C20.4216 18.4848 20.3244 18.4609 20.2291 18.4609C20.0929 18.4609 19.9228 18.5581 19.7185 18.752C19.5142 18.9463 19.3269 19.1572 19.1567 19.3856C18.9864 19.6139 18.8059 19.8248 18.6154 20.019C18.4246 20.2132 18.2678 20.3102 18.1454 20.3102C18.0839 20.3102 18.0072 20.293 17.9154 20.2592C17.8235 20.2252 17.7537 20.196 17.7057 20.1725C17.6582 20.1485 17.5767 20.101 17.4608 20.0292C17.3447 19.9577 17.2801 19.9185 17.2665 19.9117C16.3335 19.3939 15.5332 18.8014 14.8656 18.1341C14.1983 17.4665 13.6056 16.6664 13.088 15.7332C13.0812 15.7196 13.0419 15.6549 12.9705 15.5391C12.8989 15.4233 12.8512 15.3417 12.8274 15.2939C12.8035 15.2463 12.7746 15.1764 12.7406 15.0845C12.7066 14.9926 12.6895 14.916 12.6895 14.8546C12.6895 14.7321 12.7866 14.5754 12.9807 14.3846C13.1748 14.194 13.386 14.0135 13.6141 13.8433C13.8424 13.6732 14.0534 13.4858 14.2476 13.2816C14.4417 13.0772 14.5387 12.907 14.5387 12.7708C14.5387 12.6756 14.5149 12.5784 14.4672 12.4797C14.4196 12.3807 14.3464 12.26 14.2476 12.1169C14.1487 11.9739 14.0891 11.8888 14.0687 11.8615C13.9666 11.6913 13.8611 11.5091 13.752 11.315C13.6429 11.1209 13.5238 10.9046 13.3944 10.6663C13.265 10.428 13.1629 10.2441 13.0879 10.1147C12.8496 9.638 12.6692 9.37908 12.5466 9.33835C12.4989 9.31792 12.4273 9.30762 12.332 9.30762C12.148 9.30762 11.908 9.34161 11.6117 9.40981C11.3153 9.47791 11.0821 9.54933 10.9118 9.62437C10.5713 9.76732 10.2103 10.1828 9.82883 10.8705C9.48146 11.5106 9.3078 12.1441 9.3078 12.7707C9.3078 12.9544 9.31972 13.1332 9.34355 13.307C9.36738 13.4807 9.40997 13.6765 9.47134 13.8945C9.5326 14.1124 9.58202 14.2743 9.61938 14.3797C9.65677 14.4852 9.72659 14.6742 9.82879 14.9467C9.93085 15.2191 9.99222 15.3859 10.0127 15.4472C10.251 16.1147 10.5337 16.7106 10.8606 17.2351C11.3984 18.1068 12.1324 19.0077 13.0621 19.9374C13.9918 20.867 14.8926 21.6009 15.7645 22.139C16.2889 22.4658 16.885 22.7484 17.5525 22.987C17.6138 23.0073 17.7806 23.0685 18.053 23.1709C18.3254 23.273 18.5145 23.3429 18.62 23.3803C18.7255 23.4178 18.8874 23.4673 19.1052 23.5286C19.3234 23.59 19.5191 23.6326 19.6927 23.6566C19.8665 23.6801 20.0453 23.6922 20.2291 23.6922C20.8556 23.6922 21.4892 23.5185 22.1295 23.1712C22.8172 22.7899 23.2326 22.4289 23.3756 22.0881C23.4508 21.9179 23.5221 21.6847 23.5902 21.3883C23.6585 21.0921 23.6924 20.8521 23.6924 20.6682C23.6926 20.5725 23.6824 20.5011 23.6618 20.453Z" fill="#07086C"/>
</g>
</svg>
