<svg width="41" height="41" viewBox="0 0 41 41" fill="none" xmlns="http://www.w3.org/2000/svg">
<g id="Group 34838">
<circle id="Ellipse 16" opacity="0.5" cx="20.4699" cy="20.4698" r="19.9629" transform="rotate(1.4742 20.4699 20.4698)" fill="white"/>
<path id="Vector" d="M19.2361 26.9426C19.0205 26.943 18.8115 26.8679 18.6455 26.7303C18.5521 26.6528 18.4748 26.5577 18.4182 26.4503C18.3616 26.343 18.3267 26.2255 18.3155 26.1046C18.3044 25.9837 18.3172 25.8618 18.3532 25.7459C18.3893 25.63 18.4478 25.5223 18.5255 25.4291L22.66 20.4825L18.6732 15.5266C18.5965 15.4322 18.5393 15.3236 18.5047 15.207C18.4702 15.0904 18.459 14.9681 18.4719 14.8472C18.4848 14.7263 18.5214 14.6091 18.5797 14.5024C18.638 14.3957 18.7168 14.3015 18.8116 14.2254C18.9071 14.1414 19.0189 14.078 19.1401 14.0392C19.2612 14.0005 19.389 13.9872 19.5156 14.0002C19.6421 14.0132 19.7646 14.0522 19.8753 14.1148C19.986 14.1773 20.0826 14.2621 20.159 14.3638L24.6165 19.9011C24.7522 20.0662 24.8264 20.2733 24.8264 20.4871C24.8264 20.7008 24.7522 20.908 24.6165 21.0731L20.0021 26.6103C19.9095 26.722 19.7919 26.8103 19.6589 26.868C19.5258 26.9258 19.3809 26.9513 19.2361 26.9426Z" fill="white"/>
</g>
</svg>
