<svg width="157" height="163" viewBox="0 0 157 163" fill="none" xmlns="http://www.w3.org/2000/svg">
<g id="Group 504">
<circle id="Ellipse 13" opacity="0.1" cx="100.861" cy="106.57" r="56.1394" fill="#07086C"/>
<circle id="Ellipse 14" opacity="0.1" cx="53.2848" cy="97.0546" r="53.2848" fill="#07086C"/>
<circle id="Ellipse 15" opacity="0.1" cx="90.3942" cy="53.2848" r="53.2848" fill="#07086C"/>
<g id="Ellipse 12">
<circle cx="80.8788" cy="81.8303" r="56.1394" fill="#07086C"/>
<circle cx="80.8788" cy="81.8303" r="56.1394" fill="url(#paint0_linear_1_2047)"/>
</g>
<g id="Group 513">
<path id="Vector" d="M55.5891 90.9727H68.8587V103.472C68.8587 104.853 69.9778 105.972 71.3585 105.972H91.3585C92.7394 105.972 93.8585 104.853 93.8585 103.472V83.4724C93.8585 82.0915 92.7394 80.9724 91.3585 80.9724H78.8585V67.7033C78.8573 67.2367 78.6705 66.7899 78.3385 66.4625C78.0147 66.1469 77.5798 65.9711 77.1278 65.9727H56.3587C54.9778 65.9727 53.8584 67.0917 53.8584 68.4724V89.2415C53.8596 89.7081 54.047 90.1549 54.3784 90.4823C54.7025 90.7979 55.1371 90.9737 55.5891 90.9727V90.9727ZM75.5253 90.9727H76.3588C77.7394 90.9727 78.8585 89.853 78.8585 88.4724V87.639H87.1916V99.3059H75.5253V90.9727ZM77.1919 88.4724C77.1919 88.9326 76.8187 89.3059 76.3588 89.3059H58.9033L77.1919 71.0175V88.4724ZM91.3585 82.639C91.819 82.639 92.1919 83.0122 92.1919 83.4724V103.472C92.1919 103.933 91.819 104.306 91.3585 104.306H71.3585C70.8982 104.306 70.5253 103.933 70.5253 103.472V90.9727H73.8585V99.3059C73.8585 100.226 74.6046 100.972 75.5253 100.972H87.1916C88.1123 100.972 88.8588 100.226 88.8588 99.3059V87.639C88.8588 86.7189 88.1123 85.9724 87.1916 85.9724H78.8585V82.639H91.3585ZM77.1919 67.7033V68.6607L56.5467 89.3059H55.5891L55.525 89.2415V87.9722L75.8537 67.6392H77.1278L77.1919 67.7033ZM56.3587 67.6392H73.4968L55.525 85.6108V68.4724C55.525 68.0122 55.8982 67.6392 56.3587 67.6392Z" fill="white"/>
<path id="Vector_2" d="M86.1625 56.0991C85.5311 55.8382 84.8048 55.988 84.3293 56.4781L78.8581 62.2942C78.2142 62.9381 78.2066 63.98 78.8407 64.6333L84.3464 70.4842C84.8231 70.9609 85.54 71.1031 86.1625 70.8452C86.7854 70.5873 87.1913 69.98 87.1913 69.3059V66.8059H93.0247V73.4725H90.525C89.846 73.4725 89.2354 73.8845 88.9799 74.5134C88.7251 75.1424 88.8774 75.8635 89.3651 76.3356L95.1796 81.8059C95.4939 82.1203 95.9206 82.2967 96.3649 82.2957C96.7967 82.2976 97.2118 82.1279 97.5182 81.8236L103.37 76.3173C103.846 75.841 103.989 75.1241 103.731 74.5015C103.473 73.8787 102.865 73.4728 102.192 73.4725H99.6913V62.639C99.6913 61.2584 98.5722 60.1393 97.1916 60.1393H87.1913V57.639C87.1919 56.9649 86.7854 56.357 86.1625 56.0991V56.0991ZM97.1916 61.8059C97.6515 61.8059 98.0248 62.1788 98.0248 62.639V74.3059C98.0248 74.7658 98.3977 75.1391 98.8582 75.1391L102.21 75.122L96.3399 80.6093L90.525 75.1391H93.8582C94.3184 75.1391 94.6913 74.7658 94.6913 74.3059V66.8059C94.6913 65.8852 93.9452 65.139 93.0247 65.139H86.3582C85.898 65.139 85.5247 65.5123 85.5247 65.9728L85.5424 69.3236L80.0547 63.4551L85.5247 57.639V60.9724C85.5247 61.4326 85.898 61.8059 86.3582 61.8059H97.1916Z" fill="white"/>
</g>
</g>
<defs>
<linearGradient id="paint0_linear_1_2047" x1="80.8788" y1="25.6909" x2="80.8788" y2="137.97" gradientUnits="userSpaceOnUse">
<stop stop-color="#040A57"/>
<stop offset="1" stop-color="#3A23E6"/>
</linearGradient>
</defs>
</svg>
