<svg width="157" height="163" viewBox="0 0 157 163" fill="none" xmlns="http://www.w3.org/2000/svg">
<g id="Group 504">
<circle id="Ellipse 13" opacity="0.1" cx="100.861" cy="106.57" r="56.1394" fill="#07086C"/>
<circle id="Ellipse 14" opacity="0.1" cx="53.2848" cy="97.0544" r="53.2848" fill="#07086C"/>
<circle id="Ellipse 15" opacity="0.1" cx="90.3942" cy="53.2848" r="53.2848" fill="#07086C"/>
<circle id="Ellipse 12" cx="81.1393" cy="82.1394" r="56.1394" fill="url(#paint0_linear_1_2094)"/>
<g id="Group 512">
<g id="Group">
<g id="Group_2">
<path id="Vector" d="M69.667 89.8335C66.9095 89.8335 64.667 92.076 64.667 94.8335C64.667 97.591 66.9095 99.8335 69.667 99.8335C72.4245 99.8335 74.667 97.591 74.667 94.8335C74.667 92.076 72.4244 89.8335 69.667 89.8335ZM69.667 98.1668C67.8286 98.1668 66.3337 96.6718 66.3337 94.8335C66.3337 92.9951 67.8287 91.5002 69.667 91.5002C71.5053 91.5002 73.0003 92.9952 73.0003 94.8335C73.0003 96.6718 71.5053 98.1668 69.667 98.1668Z" fill="white"/>
</g>
</g>
<g id="Group_3">
<g id="Group_4">
<path id="Vector_2" d="M98 89.8335C95.2425 89.8335 93 92.076 93 94.8335C93 97.591 95.2425 99.8335 98 99.8335C100.758 99.8335 103 97.591 103 94.8335C103 92.076 100.758 89.8335 98 89.8335ZM98 98.1668C96.1616 98.1668 94.6667 96.6718 94.6667 94.8335C94.6667 92.9951 96.1617 91.5002 98 91.5002C99.8384 91.5002 101.333 92.9952 101.333 94.8335C101.333 96.6718 99.8384 98.1668 98 98.1668Z" fill="white"/>
</g>
</g>
<g id="Group_5">
<g id="Group_6">
<path id="Vector_3" d="M107.868 85.2162L100.368 73.5495C100.214 73.3111 99.9503 73.167 99.6669 73.167H90.5003C90.0395 73.167 89.667 73.5403 89.667 74.0003V94.8336C89.667 95.2945 90.0395 95.6669 90.5003 95.6669H93.8336V94.0002H91.3336V74.8337H99.2119L106.334 85.912V94.0004H102.167V95.667H107.167C107.628 95.667 108 95.2946 108 94.8337V85.667C108 85.5078 107.955 85.3503 107.868 85.2162Z" fill="white"/>
</g>
</g>
<g id="Group_7">
<g id="Group_8">
<path id="Vector_4" d="M94.6666 84V78.1667H101.333V76.5H93.8333C93.3725 76.5 93 76.8733 93 77.3333V84.8333C93 85.2942 93.3725 85.6666 93.8333 85.6666H106.333V83.9999H94.6666V84Z" fill="white"/>
</g>
</g>
<g id="Group_9">
<g id="Group_10">
<path id="Vector_5" d="M90.5001 67.3335H58.8333C58.3733 67.3335 58 67.7068 58 68.1668V94.8335C58 95.2944 58.3733 95.6668 58.8333 95.6668H65.5V94.0001H59.6667V69.0001H89.6668V94.0001H73.8333V95.6668H90.5001C90.9609 95.6668 91.3334 95.2944 91.3334 94.8335V68.1668C91.3334 67.7068 90.9609 67.3335 90.5001 67.3335Z" fill="white"/>
</g>
</g>
<g id="Group_11">
<g id="Group_12">
<path id="Vector_6" d="M63.833 90.667H58.833V92.3337H63.833V90.667Z" fill="white"/>
</g>
</g>
<g id="Group_13">
<g id="Group_14">
<path id="Vector_7" d="M89.6667 90.667H75.5V92.3337H89.6667V90.667Z" fill="white"/>
</g>
</g>
<g id="Group_15">
<g id="Group_16">
<path id="Vector_8" d="M107.167 90.667H103.834V92.3337H107.167V90.667Z" fill="white"/>
</g>
</g>
<g id="Group_17">
<g id="Group_18">
<path id="Vector_9" d="M90.4998 70.6665H61.333V72.3332H90.4998V70.6665Z" fill="white"/>
</g>
</g>
<g id="Group_19">
<g id="Group_20">
<path id="Vector_10" d="M70.4997 94H68.833V95.6667H70.4997V94Z" fill="white"/>
</g>
</g>
<g id="Group_21">
<g id="Group_22">
<path id="Vector_11" d="M98.8337 94H97.167V95.6667H98.8337V94Z" fill="white"/>
</g>
</g>
<g id="Group_23">
<g id="Group_24">
<path id="Vector_12" d="M72.9997 64H61.333V65.6667H72.9997V64Z" fill="white"/>
</g>
</g>
<g id="Group_25">
<g id="Group_26">
<path id="Vector_13" d="M59.6667 64H58V65.6667H59.6667V64Z" fill="white"/>
</g>
</g>
</g>
</g>
<defs>
<linearGradient id="paint0_linear_1_2094" x1="81.1393" y1="26" x2="81.1393" y2="138.279" gradientUnits="userSpaceOnUse">
<stop stop-color="#040A57"/>
<stop offset="1" stop-color="#3A23E6"/>
</linearGradient>
</defs>
</svg>
